<svg xmlns="http://www.w3.org/2000/svg" version="1.1" xmlns:xlink="http://www.w3.org/1999/xlink" xmlns:svgjs="http://svgjs.dev/svgjs" width="1000" height="1000" viewBox="0 0 1000 1000"><rect width="1000" height="1000" fill="#000000"></rect><g transform="matrix(0.7,0,0,0.7,150.61875409836063,146.08680161943317)"><svg viewBox="0 0 244 247" data-background-color="#0023ff" preserveAspectRatio="xMidYMid meet" height="1012" width="1000" xmlns="http://www.w3.org/2000/svg" xmlns:xlink="http://www.w3.org/1999/xlink"><g id="tight-bounds" transform="matrix(1,0,0,1,-0.21567999999999188,-0.09999999999999432)"><svg viewBox="0 0 244.43135999999998 247.2" height="247.2" width="244.43135999999998"><g><svg></svg></g><g><svg viewBox="0 0 244.43135999999998 247.2" height="247.2" width="244.43135999999998"><g transform="matrix(1,0,0,1,0,114.80036659331267)"><svg viewBox="0 0 244.43135999999998 17.59926681337464" height="17.59926681337464" width="244.43135999999998"><g><svg viewBox="0 0 244.43135999999998 17.59926681337464" height="17.59926681337464" width="244.43135999999998"><g><svg viewBox="0 0 244.43135999999998 17.59926681337464" height="17.59926681337464" width="244.43135999999998"><g><svg viewBox="0 0 244.43135999999998 17.59926681337464" height="17.59926681337464" width="244.43135999999998"><g id="textblocktransform"><svg viewBox="0 0 244.43135999999998 17.59926681337464" height="17.59926681337464" width="244.43135999999998" id="textblock"><g><svg viewBox="0 0 244.43135999999998 17.59926681337464" height="17.59926681337464" width="244.43135999999998"><g transform="matrix(1,0,0,1,0,0)"><svg width="244.43135999999998" viewBox="3.549999952316284 -33.20000076293945 468.010009765625 33.70000076293945" height="17.59926681337464" data-palette-color="#1ebbd7"><path d="M18.2-30.2L19.5-32.75 22.65-32.75Q17.65-22.75 13.7-16.85L13.7-16.85Q15.2-14.6 17.5-10.4L17.5-10.4 23 0 19.65 0Q14.05-10.95 11.35-15.25L11.35-15.25 6.3-14.75 6.3 0 3.55 0 3.55-32.75 6.3-32.75 6.3-17.3 11.15-17.8Q14.7-23.2 18.2-30.2L18.2-30.2ZM35.9-2.15L35.9-2.15Q37.75-2.15 39.92-3.33 42.1-4.5 43.1-5.5L43.1-5.5 43.1-11.45Q39.8-11.7 36.8-11.7 33.8-11.7 32.3-10.43 30.8-9.15 30.8-7L30.8-7Q30.8-2.15 35.9-2.15ZM35.85 0.45L35.85 0.45Q32.2 0.45 30.1-1.43 28-3.3 28-6.75 28-10.2 30.3-12.1L30.3-12.1Q32.6-14.05 36.4-14.05 40.2-14.05 43.1-13.75L43.1-13.75Q43.1-18.2 42-19.83 40.9-21.45 37.55-21.45 34.2-21.45 29.65-19.85L29.65-19.85 28.9-22.35Q33.55-24.05 37.3-24.05L37.3-24.05Q42.25-24.05 44-21.85 45.75-19.65 45.75-14.15L45.75-14.15 45.75-3.65 46.15 0.15 43.6 0.4 43.1-2.6Q41.95-1.6 39.85-0.58 37.75 0.45 35.85 0.45ZM59.25-21.25L54.55-21.25 54.55-23.75 61.9-23.75 62-20.85Q63.6-21.85 66.5-22.85 69.4-23.85 71.59-24.05L71.59-24.05 71.59-21.1Q69.55-20.95 66.52-20.1 63.5-19.25 62-18.35L62-18.35 62-2.5 70-2.5 70 0 54.55 0 54.55-2.5 59.25-2.5 59.25-21.25ZM96.24 0L93.69 0 93.59-2.05Q88.79 0.45 85.59 0.45 82.39 0.45 80.54-1.75 78.69-3.95 78.69-7.75L78.69-7.75 78.69-23.75 81.34-23.75 81.34-7.75Q81.34-5.3 82.52-3.73 83.69-2.15 86.09-2.15 88.49-2.15 93.59-4.65L93.59-4.65 93.59-23.75 96.24-23.75 96.24 0ZM103.79-23.75L106.34-23.75 106.44-21.75Q111.29-24.05 114.49-24.05 117.69-24.05 119.52-21.85 121.34-19.65 121.34-15.85L121.34-15.85 121.34 0 118.69 0 118.69-15.85Q118.69-18.3 117.49-19.9L117.49-19.9Q116.29-21.45 113.89-21.45 111.49-21.45 106.44-19.25L106.44-19.25 106.44 0 103.79 0 103.79-23.75ZM128.34-11.85Q128.34-17.6 130.71-20.83 133.09-24.05 137.64-24.05 142.19-24.05 144.41-21.05 146.64-18.05 146.64-13.05L146.64-13.05 146.49-10.55 131.19-10.55Q131.44-6.8 133.19-4.48 134.94-2.15 138.01-2.15 141.09-2.15 145.24-3.6L145.24-3.6 145.99-1.1Q141.94 0.45 138.39 0.45L138.39 0.45Q133.49 0.45 130.91-2.83 128.34-6.1 128.34-11.85ZM137.84-21.5L137.84-21.5Q131.54-21.5 131.19-13.05L131.19-13.05 143.79-13.05Q143.79-21.5 137.84-21.5ZM153.89-1.15L153.89-1.15 154.54-3.75Q159.49-2.1 162.19-2.1 164.89-2.1 166.36-3.28 167.84-4.45 167.84-6.4 167.84-8.35 166.66-9.28 165.49-10.2 161.79-11.05 158.09-11.9 156.24-13.5L156.24-13.5Q154.39-15 154.39-18 154.39-21 156.66-22.58 158.94-24.15 162.54-24.15 166.14-24.15 170.34-22.55L170.34-22.55 169.64-20.2Q165.39-21.6 162.79-21.6 160.19-21.6 158.69-20.7L158.69-20.7Q157.19-19.7 157.19-18 157.19-16.3 158.51-15.35 159.84-14.4 163.64-13.45 167.44-12.5 169.04-11.03 170.64-9.55 170.64-6.4 170.64-3.25 168.49-1.4L168.49-1.4Q166.39 0.45 162.49 0.45 158.59 0.45 153.89-1.15ZM181.53-19.4L181.53-19.4 181.53 0 178.88 0 178.88-33.2 181.53-33.2 181.53-21.95Q186.23-24.05 189.28-24.05L189.28-24.05Q196.43-24.05 196.43-15.85L196.43-15.85 196.43 0 193.78 0 193.78-15.85Q193.78-18.4 192.68-19.93 191.58-21.45 188.88-21.45 186.18-21.45 181.53-19.4ZM247.43 0L244.68 0 244.68-5.15 230.43-27.55 230.28-27.55 230.28 0 227.53 0 227.53-32.75 230.23-32.75 244.53-10.1 244.68-10.1 244.68-32.75 247.43-32.75 247.43 0ZM253.33-11.85Q253.33-17.6 255.7-20.83 258.08-24.05 262.63-24.05 267.18-24.05 269.4-21.05 271.63-18.05 271.63-13.05L271.63-13.05 271.48-10.55 256.18-10.55Q256.43-6.8 258.18-4.48 259.93-2.15 263-2.15 266.08-2.15 270.23-3.6L270.23-3.6 270.98-1.1Q266.93 0.45 263.38 0.45L263.38 0.45Q258.48 0.45 255.9-2.83 253.33-6.1 253.33-11.85ZM262.83-21.5L262.83-21.5Q256.53-21.5 256.18-13.05L256.18-13.05 268.78-13.05Q268.78-21.5 262.83-21.5ZM293.02-2.4L295.62-23.75 298.22-23.75 295.37 0 290.07 0 287.52-10.35 287.32-10.35 284.72 0 279.47 0 276.72-23.75 279.32-23.75 281.92-2.4 282.82-2.4 286.17-14.45 288.77-14.45 292.12-2.4 293.02-2.4ZM303.87-1.15L303.87-1.15 304.52-3.75Q309.47-2.1 312.17-2.1 314.87-2.1 316.35-3.28 317.82-4.45 317.82-6.4 317.82-8.35 316.65-9.28 315.47-10.2 311.77-11.05 308.07-11.9 306.22-13.5L306.22-13.5Q304.37-15 304.37-18 304.37-21 306.65-22.58 308.92-24.15 312.52-24.15 316.12-24.15 320.32-22.55L320.32-22.55 319.62-20.2Q315.37-21.6 312.77-21.6 310.17-21.6 308.67-20.7L308.67-20.7Q307.17-19.7 307.17-18 307.17-16.3 308.5-15.35 309.82-14.4 313.62-13.45 317.42-12.5 319.02-11.03 320.62-9.55 320.62-6.4 320.62-3.25 318.47-1.4L318.47-1.4Q316.37 0.45 312.47 0.45 308.57 0.45 303.87-1.15ZM336.37-30.75L330.42-30.7 330.37-33.15 339.02-33.2 339.02-2.5 345.12-2.5 345.12 0 330.22 0 330.22-2.5 336.37-2.5 336.37-30.75ZM353.32-11.85Q353.32-17.6 355.69-20.83 358.07-24.05 362.62-24.05 367.17-24.05 369.39-21.05 371.62-18.05 371.62-13.05L371.62-13.05 371.47-10.55 356.17-10.55Q356.42-6.8 358.17-4.48 359.92-2.15 362.99-2.15 366.07-2.15 370.22-3.6L370.22-3.6 370.97-1.1Q366.92 0.45 363.37 0.45L363.37 0.45Q358.47 0.45 355.89-2.83 353.32-6.1 353.32-11.85ZM362.82-21.5L362.82-21.5Q356.52-21.5 356.17-13.05L356.17-13.05 368.77-13.05Q368.77-21.5 362.82-21.5ZM382.96-9.1L382.96-20.9 378.76-20.9 378.76-23.4 382.96-23.4 382.96-29.15 385.61-29.65 385.61-23.4 395.11-23.4 395.11-20.9 385.61-20.9 385.61-9.2Q385.61-5.3 386.39-3.7 387.16-2.1 389.56-2.1 391.96-2.1 394.86-3.05L394.86-3.05 395.46-0.55Q392.56 0.5 390.06 0.5 387.56 0.5 386.14-0.15 384.71-0.8 384.04-2.23 383.36-3.65 383.16-5.15 382.96-6.65 382.96-9.1L382.96-9.1ZM407.96-9.1L407.96-20.9 403.76-20.9 403.76-23.4 407.96-23.4 407.96-29.15 410.61-29.65 410.61-23.4 420.11-23.4 420.11-20.9 410.61-20.9 410.61-9.2Q410.61-5.3 411.39-3.7 412.16-2.1 414.56-2.1 416.96-2.1 419.86-3.05L419.86-3.05 420.46-0.55Q417.56 0.5 415.06 0.5 412.56 0.5 411.14-0.15 409.71-0.8 409.04-2.23 408.36-3.65 408.16-5.15 407.96-6.65 407.96-9.1L407.96-9.1ZM428.31-11.85Q428.31-17.6 430.68-20.83 433.06-24.05 437.61-24.05 442.16-24.05 444.38-21.05 446.61-18.05 446.61-13.05L446.61-13.05 446.46-10.55 431.16-10.55Q431.41-6.8 433.16-4.48 434.91-2.15 437.98-2.15 441.06-2.15 445.21-3.6L445.21-3.6 445.96-1.1Q441.91 0.45 438.36 0.45L438.36 0.45Q433.46 0.45 430.88-2.83 428.31-6.1 428.31-11.85ZM437.81-21.5L437.81-21.5Q431.51-21.5 431.16-13.05L431.16-13.05 443.76-13.05Q443.76-21.5 437.81-21.5ZM459.21-21.25L454.51-21.25 454.51-23.75 461.86-23.75 461.96-20.85Q463.56-21.85 466.46-22.85 469.36-23.85 471.56-24.05L471.56-24.05 471.56-21.1Q469.51-20.95 466.48-20.1 463.46-19.25 461.96-18.35L461.96-18.35 461.96-2.5 469.96-2.5 469.96 0 454.51 0 454.51-2.5 459.21-2.5 459.21-21.25Z" opacity="1" transform="matrix(1,0,0,1,0,0)" fill="#ffffff" class="undefined-text-0" data-fill-palette-color="primary" id="text-0"></path></svg></g></svg></g></svg></g></svg></g><g></g></svg></g></svg></g></svg></g><path d="M0 108.8L0 1 244.431 1 244.431 108.8 242.844 108.8 242.844 2.587 1.587 2.587 1.587 108.8 0 108.8M0 138.4L0 246.2 244.431 246.2 244.431 138.4 242.844 138.4 242.844 244.613 1.587 244.613 1.587 138.4 0 138.4" fill="#ffffff" stroke="transparent" data-fill-palette-color="primary"></path></svg></g><defs></defs></svg><rect width="244.43135999999998" height="247.2" fill="none" stroke="none" visibility="hidden"></rect></g></svg></g></svg>